<?xml version="1.0" standalone="no"?>
<!DOCTYPE svg PUBLIC "-//W3C//DTD SVG 20010904//EN"
 "http://www.w3.org/TR/2001/REC-SVG-20010904/DTD/svg10.dtd">
<svg version="1.0" xmlns="http://www.w3.org/2000/svg"
 width="256.000000pt" height="255.000000pt" viewBox="0 0 256.000000 255.000000"
 preserveAspectRatio="xMidYMid meet">

<g transform="translate(0.000000,255.000000) scale(0.100000,-0.100000)"
fill="#000000" stroke="none">
<path d="M1139 2087 c-26 -40 -136 -207 -245 -372 -109 -165 -199 -305 -199
-310 0 -6 -39 -69 -86 -140 -99 -151 -129 -200 -129 -209 0 -3 64 -5 143 -5
78 1 127 4 108 8 l-33 6 80 155 c89 171 83 166 197 176 125 11 110 -1 219 169
96 149 100 154 115 133 27 -39 269 -433 267 -435 -1 -1 -41 -3 -89 -4 -83 -3
-118 -12 -60 -17 25 -2 42 -16 43 -35 0 -5 -4 -5 -10 -2 -5 3 -10 -1 -10 -9 0
-8 -5 -27 -12 -43 -6 -15 -10 -34 -9 -41 1 -7 -8 -16 -21 -21 -22 -9 -22 -9
-3 -17 12 -6 -61 -11 -190 -14 l-210 -6 238 -2 c150 -1 237 -6 237 -12 0 -6
77 -10 211 -10 116 0 209 3 207 8 -6 12 -77 124 -217 340 -158 245 -392 619
-447 715 -21 37 -41 67 -44 67 -3 -1 -26 -33 -51 -73z"/>
<path d="M1353 1253 c9 -2 23 -2 30 0 6 3 -1 5 -18 5 -16 0 -22 -2 -12 -5z"/>
<path d="M2015 1248 c8 -20 -12 -88 -26 -88 -5 0 -9 -7 -9 -15 0 -8 -4 -15
-10 -15 -13 0 -13 -23 1 -54 8 -18 22 -27 49 -31 49 -8 110 3 110 21 0 14 -38
82 -84 149 -33 48 -39 54 -31 33z"/>
<path d="M1550 836 c0 -28 -5 -46 -14 -49 -7 -3 -16 -15 -19 -26 -4 -16 0 -21
14 -21 17 0 19 -8 19 -86 0 -81 1 -87 29 -115 34 -34 91 -41 90 -11 0 19 -17
62 -18 48 -1 -5 -8 -3 -16 4 -11 9 -15 33 -15 91 l0 79 30 0 c23 0 30 5 30 19
0 15 -8 21 -32 23 -31 3 -33 6 -36 46 -3 39 -5 42 -33 42 -28 0 -29 -2 -29
-44z"/>
<path d="M609 787 c-128 -86 -93 -264 57 -293 35 -6 109 21 132 49 11 13 10
18 -12 32 -24 16 -28 16 -61 1 -83 -40 -154 39 -110 123 8 16 22 31 30 35 26
9 74 7 97 -5 16 -9 24 -7 39 10 25 27 15 48 -29 61 -59 16 -106 12 -143 -13z"/>
<path d="M948 798 c-23 -6 -51 -25 -73 -49 -31 -34 -35 -45 -35 -92 0 -62 24
-108 72 -137 40 -24 114 -26 146 -4 22 15 24 15 36 -1 16 -23 71 -17 70 8 0 9
-1 76 -2 147 l-2 130 -29 0 c-16 0 -31 -5 -33 -12 -3 -9 -11 -9 -34 -1 -47 18
-77 21 -116 11z m113 -87 c20 -20 29 -39 29 -61 0 -40 -47 -90 -85 -90 -56 0
-94 36 -94 90 0 83 91 120 150 61z"/>
<path d="M1317 800 c-37 -11 -57 -29 -69 -59 -21 -55 17 -93 105 -106 54 -8
62 -16 47 -45 -12 -23 -30 -25 -76 -8 -26 9 -39 9 -60 -1 l-27 -12 23 -25 c50
-52 136 -51 192 3 59 57 19 134 -77 148 -55 9 -76 29 -45 45 20 11 60 5 70
-10 3 -5 16 1 29 11 24 20 24 20 5 39 -23 22 -79 32 -117 20z"/>
<path d="M1783 780 c-66 -40 -89 -146 -45 -208 53 -74 144 -94 214 -46 65 46
40 76 -40 48 -25 -8 -56 -13 -69 -9 -26 6 -58 49 -48 65 4 6 50 10 116 10 103
0 109 1 109 20 0 32 -25 74 -65 109 -30 26 -44 31 -88 31 -34 0 -63 -7 -84
-20z m141 -61 c14 -11 24 -25 21 -30 -9 -14 -145 -11 -145 3 0 46 78 63 124
27z"/>
</g>
</svg>
